<svg width="15" height="16" viewBox="0 0 15 16" fill="none" xmlns="http://www.w3.org/2000/svg">
    <path
        d="M14.5594 12.4418C15.1453 13.0277 15.1453 13.9769 14.5594 14.5629C14.2688 14.8559 13.8844 15.0012 13.5 15.0012C13.1156 15.0012 12.7322 14.8547 12.4397 14.5617L7.5 9.6246L2.56078 14.5605C2.26781 14.8559 1.88391 15.0012 1.5 15.0012C1.11609 15.0012 0.732656 14.8559 0.439453 14.5605C-0.146484 13.9746 -0.146484 13.0254 0.439453 12.4394L5.38008 7.49883L0.439453 2.56055C-0.146484 1.97461 -0.146484 1.02539 0.439453 0.439453C1.02539 -0.146484 1.97461 -0.146484 2.56055 0.439453L7.5 5.38242L12.4406 0.441797C13.0266 -0.14414 13.9758 -0.14414 14.5617 0.441797C15.1477 1.02773 15.1477 1.97695 14.5617 2.56289L9.62109 7.50351L14.5594 12.4418Z"
        fill="#94A3B8" />
</svg>